<svg id="visual" viewBox="0 0 960 540" width="960" height="540" xmlns="http://www.w3.org/2000/svg" xmlns:xlink="http://www.w3.org/1999/xlink" version="1.1"><rect x="0" y="0" width="960" height="540" fill="#0DCAF0"></rect><path d="M0 266L16 260.5C32 255 64 244 96 238.8C128 233.7 160 234.3 192 231.5C224 228.7 256 222.3 288 223.7C320 225 352 234 384 236.3C416 238.7 448 234.3 480 241.5C512 248.7 544 267.3 576 275.5C608 283.7 640 281.3 672 274.3C704 267.3 736 255.7 768 244.8C800 234 832 224 864 218.7C896 213.3 928 212.7 944 212.3L960 212L960 541L944 541C928 541 896 541 864 541C832 541 800 541 768 541C736 541 704 541 672 541C640 541 608 541 576 541C544 541 512 541 480 541C448 541 416 541 384 541C352 541 320 541 288 541C256 541 224 541 192 541C160 541 128 541 96 541C64 541 32 541 16 541L0 541Z" fill="#e4e8ec"></path><path d="M0 340L16 336.7C32 333.3 64 326.7 96 326.8C128 327 160 334 192 327.8C224 321.7 256 302.3 288 294.2C320 286 352 289 384 288.7C416 288.3 448 284.7 480 282C512 279.3 544 277.7 576 279.2C608 280.7 640 285.3 672 290.5C704 295.7 736 301.3 768 302.7C800 304 832 301 864 299.8C896 298.7 928 299.3 944 299.7L960 300L960 541L944 541C928 541 896 541 864 541C832 541 800 541 768 541C736 541 704 541 672 541C640 541 608 541 576 541C544 541 512 541 480 541C448 541 416 541 384 541C352 541 320 541 288 541C256 541 224 541 192 541C160 541 128 541 96 541C64 541 32 541 16 541L0 541Z" fill="#eef0f3"></path><path d="M0 358L16 354.5C32 351 64 344 96 341C128 338 160 339 192 338C224 337 256 334 288 341.7C320 349.3 352 367.7 384 368.2C416 368.7 448 351.3 480 345.2C512 339 544 344 576 352.3C608 360.7 640 372.3 672 373C704 373.7 736 363.3 768 363.3C800 363.3 832 373.7 864 373.8C896 374 928 364 944 359L960 354L960 541L944 541C928 541 896 541 864 541C832 541 800 541 768 541C736 541 704 541 672 541C640 541 608 541 576 541C544 541 512 541 480 541C448 541 416 541 384 541C352 541 320 541 288 541C256 541 224 541 192 541C160 541 128 541 96 541C64 541 32 541 16 541L0 541Z" fill="#f8f9fa"></path><path d="M0 403L16 407.3C32 411.7 64 420.3 96 424.3C128 428.3 160 427.7 192 423.7C224 419.7 256 412.3 288 410.7C320 409 352 413 384 415C416 417 448 417 480 416.3C512 415.7 544 414.3 576 416.2C608 418 640 423 672 425.7C704 428.3 736 428.7 768 422C800 415.3 832 401.7 864 395.8C896 390 928 392 944 393L960 394L960 541L944 541C928 541 896 541 864 541C832 541 800 541 768 541C736 541 704 541 672 541C640 541 608 541 576 541C544 541 512 541 480 541C448 541 416 541 384 541C352 541 320 541 288 541C256 541 224 541 192 541C160 541 128 541 96 541C64 541 32 541 16 541L0 541Z" fill="#f9fafb"></path><path d="M0 486L16 486.3C32 486.7 64 487.3 96 483.7C128 480 160 472 192 466.3C224 460.7 256 457.3 288 457.8C320 458.3 352 462.7 384 465.5C416 468.3 448 469.7 480 473.2C512 476.7 544 482.3 576 482.7C608 483 640 478 672 474.5C704 471 736 469 768 469.8C800 470.7 832 474.3 864 474.2C896 474 928 470 944 468L960 466L960 541L944 541C928 541 896 541 864 541C832 541 800 541 768 541C736 541 704 541 672 541C640 541 608 541 576 541C544 541 512 541 480 541C448 541 416 541 384 541C352 541 320 541 288 541C256 541 224 541 192 541C160 541 128 541 96 541C64 541 32 541 16 541L0 541Z" fill="#fafbfc"></path></svg>