<svg id="visual" viewBox="0 0 960 540" width="960" height="540" xmlns="http://www.w3.org/2000/svg" xmlns:xlink="http://www.w3.org/1999/xlink" version="1.1"><rect x="0" y="0" width="960" height="540" fill="#202731"></rect><path d="M0 114L16 121.8C32 129.7 64 145.3 96 142.5C128 139.7 160 118.3 192 122.7C224 127 256 157 288 170.2C320 183.3 352 179.7 384 180C416 180.3 448 184.7 480 180.2C512 175.7 544 162.3 576 162.7C608 163 640 177 672 189.2C704 201.3 736 211.7 768 207.5C800 203.3 832 184.7 864 164.5C896 144.3 928 122.7 944 111.8L960 101L960 541L944 541C928 541 896 541 864 541C832 541 800 541 768 541C736 541 704 541 672 541C640 541 608 541 576 541C544 541 512 541 480 541C448 541 416 541 384 541C352 541 320 541 288 541C256 541 224 541 192 541C160 541 128 541 96 541C64 541 32 541 16 541L0 541Z" fill="#006a8d"></path><path d="M0 325L16 322.7C32 320.3 64 315.7 96 299.7C128 283.7 160 256.3 192 242.8C224 229.3 256 229.7 288 233.5C320 237.3 352 244.7 384 256.3C416 268 448 284 480 291.2C512 298.3 544 296.7 576 298.5C608 300.3 640 305.7 672 302.8C704 300 736 289 768 291.3C800 293.7 832 309.3 864 306.3C896 303.3 928 281.7 944 270.8L960 260L960 541L944 541C928 541 896 541 864 541C832 541 800 541 768 541C736 541 704 541 672 541C640 541 608 541 576 541C544 541 512 541 480 541C448 541 416 541 384 541C352 541 320 541 288 541C256 541 224 541 192 541C160 541 128 541 96 541C64 541 32 541 16 541L0 541Z" fill="#0398bf"></path><path d="M0 372L16 374.3C32 376.7 64 381.3 96 388.7C128 396 160 406 192 402.5C224 399 256 382 288 375.5C320 369 352 373 384 380.5C416 388 448 399 480 403.3C512 407.7 544 405.3 576 404.2C608 403 640 403 672 410.2C704 417.3 736 431.7 768 422.8C800 414 832 382 864 366.3C896 350.7 928 351.3 944 351.7L960 352L960 541L944 541C928 541 896 541 864 541C832 541 800 541 768 541C736 541 704 541 672 541C640 541 608 541 576 541C544 541 512 541 480 541C448 541 416 541 384 541C352 541 320 541 288 541C256 541 224 541 192 541C160 541 128 541 96 541C64 541 32 541 16 541L0 541Z" fill="#0dcaf0"></path></svg>