<svg id="visual" viewBox="0 0 960 540" width="960" height="540" xmlns="http://www.w3.org/2000/svg" xmlns:xlink="http://www.w3.org/1999/xlink" version="1.1"><rect x="0" y="0" width="960" height="540" fill="#FFC107"></rect><path d="M0 281L64 286L128 263L192 247L256 224L320 238L384 335L448 328L512 245L576 225L640 236L704 283L768 299L832 343L896 271L960 325L960 541L896 541L832 541L768 541L704 541L640 541L576 541L512 541L448 541L384 541L320 541L256 541L192 541L128 541L64 541L0 541Z" fill="#f5730a"></path><path d="M0 377L64 394L128 320L192 382L256 407L320 400L384 386L448 373L512 339L576 400L640 415L704 345L768 391L832 329L896 316L960 317L960 541L896 541L832 541L768 541L704 541L640 541L576 541L512 541L448 541L384 541L320 541L256 541L192 541L128 541L64 541L0 541Z" fill="#ed5330"></path><path d="M0 491L64 467L128 464L192 434L256 448L320 481L384 451L448 452L512 455L576 450L640 412L704 445L768 450L832 404L896 399L960 447L960 541L896 541L832 541L768 541L704 541L640 541L576 541L512 541L448 541L384 541L320 541L256 541L192 541L128 541L64 541L0 541Z" fill="#dc3545"></path></svg>