<svg id="visual" viewBox="0 0 960 540" width="960" height="540" xmlns="http://www.w3.org/2000/svg" xmlns:xlink="http://www.w3.org/1999/xlink" version="1.1"><rect x="0" y="0" width="960" height="540" fill="#0D6EFD"></rect><path d="M0 357L22.8 372.8C45.7 388.7 91.3 420.3 137 414.2C182.7 408 228.3 364 274 336.5C319.7 309 365.3 298 411.2 303.8C457 309.7 503 332.3 548.8 348.7C594.7 365 640.3 375 686 373.2C731.7 371.3 777.3 357.7 823 358.5C868.7 359.3 914.3 374.7 937.2 382.3L960 390L960 541L937.2 541C914.3 541 868.7 541 823 541C777.3 541 731.7 541 686 541C640.3 541 594.7 541 548.8 541C503 541 457 541 411.2 541C365.3 541 319.7 541 274 541C228.3 541 182.7 541 137 541C91.3 541 45.7 541 22.8 541L0 541Z" fill="#FFC107" stroke-linecap="round" stroke-linejoin="miter"></path></svg>